<svg width="19" height="24" viewBox="0 0 19 24" fill="none" xmlns="http://www.w3.org/2000/svg">
<path d="M9.67553 6.02793C10.6882 6.02793 11.9576 5.34971 12.7136 4.44543C13.3982 3.62592 13.8974 2.48143 13.8974 1.33694C13.8974 1.18152 13.8832 1.02609 13.8546 0.898926C12.7278 0.941314 11.3728 1.64779 10.5598 2.59446C9.918 3.31507 9.33321 4.44543 9.33321 5.60404C9.33321 5.7736 9.36174 5.94315 9.376 5.99967C9.44732 6.0138 9.56142 6.02793 9.67553 6.02793ZM6.10974 23.1246C7.49327 23.1246 8.10658 22.2062 9.83242 22.2062C11.5868 22.2062 11.9719 23.0963 13.5123 23.0963C15.0242 23.0963 16.0369 21.7117 16.9925 20.3552C18.0622 18.801 18.5044 17.275 18.5329 17.2044C18.4331 17.1761 15.5377 16.0033 15.5377 12.7112C15.5377 9.85702 17.8198 8.57124 17.9481 8.47233C16.4363 6.32465 14.1399 6.26813 13.5123 6.26813C11.815 6.26813 10.4315 7.28545 9.56142 7.28545C8.62006 7.28545 7.37916 6.32465 5.91006 6.32465C3.11449 6.32465 0.276123 8.61362 0.276123 12.9372C0.276123 15.6218 1.33159 18.4619 2.62954 20.2987C3.74206 21.853 4.71196 23.1246 6.10974 23.1246Z" fill="#3B3E59"/>
</svg>
