<svg width="23" height="24" viewBox="0 0 23 24" fill="none" xmlns="http://www.w3.org/2000/svg">
<path fill-rule="evenodd" clip-rule="evenodd" d="M22.7577 12.2643C22.7577 11.4763 22.687 10.7186 22.5556 9.99121H12.0894V14.2899H18.0701C17.8125 15.679 17.0295 16.8559 15.8526 17.6439V20.4322H19.444C21.5454 18.4976 22.7577 15.6487 22.7577 12.2643Z" fill="#4285F4"/>
<path fill-rule="evenodd" clip-rule="evenodd" d="M12.0895 23.1247C15.09 23.1247 17.6055 22.1296 19.4442 20.4324L15.8527 17.644C14.8576 18.3108 13.5847 18.7048 12.0895 18.7048C9.19514 18.7048 6.74527 16.75 5.87139 14.1233H2.15869V17.0025C3.98726 20.6344 7.74542 23.1247 12.0895 23.1247Z" fill="#34A853"/>
<path fill-rule="evenodd" clip-rule="evenodd" d="M5.87127 14.1231C5.64901 13.4563 5.52273 12.7441 5.52273 12.0117C5.52273 11.2792 5.64901 10.567 5.87127 9.90023V7.021H2.15857C1.40592 8.52123 0.976562 10.2185 0.976562 12.0117C0.976562 13.8049 1.40592 15.5021 2.15857 17.0024L5.87127 14.1231Z" fill="#FBBC05"/>
<path fill-rule="evenodd" clip-rule="evenodd" d="M12.0895 5.31881C13.7211 5.31881 15.186 5.8795 16.3377 6.98068L19.525 3.79332C17.6005 2.00011 15.085 0.898926 12.0895 0.898926C7.74542 0.898926 3.98726 3.38921 2.15869 7.02109L5.87139 9.90033C6.74527 7.27366 9.19514 5.31881 12.0895 5.31881Z" fill="#EA4335"/>
</svg>
